<?xml version="1.0" standalone="no"?><!DOCTYPE svg PUBLIC "-//W3C//DTD SVG 1.1//EN" "http://www.w3.org/Graphics/SVG/1.1/DTD/svg11.dtd"><svg t="1693116744433" class="icon" viewBox="0 0 1024 1024" version="1.1" xmlns="http://www.w3.org/2000/svg" p-id="4075" xmlns:xlink="http://www.w3.org/1999/xlink" width="200" height="200"><path d="M914.944 598.528c-17.92 0-32.768 14.848-32.768 32.768v71.68c0 12.288-6.656 24.064-18.432 31.232l-329.728 189.44c-11.264 7.168-25.6 7.168-36.864 0l-329.728-189.44c-10.752-5.632-18.432-17.92-18.432-31.232V593.92c0-17.92-14.848-32.768-32.768-32.768s-32.768 14.848-32.768 32.768v109.056c0 35.84 19.456 69.632 51.2 88.064l329.728 190.976c15.872 8.704 32.256 12.8 51.2 12.8 16.384 0 34.304-5.12 51.2-14.848l327.68-189.44c31.744-18.432 51.2-52.224 51.2-88.064v-71.68c0.512-18.432-12.8-32.256-30.72-32.256zM896 232.448l-329.216-189.44c-31.232-18.432-71.68-18.432-102.912 0l-329.216 189.44c-31.744 18.432-51.2 52.224-51.2 88.064v65.024c0 17.92 14.848 32.768 32.768 32.768s32.768-14.848 32.768-32.768V321.024c0-12.288 6.656-24.064 18.432-31.232l329.728-189.44c11.264-7.168 25.6-7.168 36.864 0L862.208 291.84c10.752 5.632 17.92 17.92 17.92 31.232v117.76c0 17.92 14.848 32.768 32.768 32.768 17.92 0 32.256-13.824 34.304-33.792V321.024c0.512-35.84-19.456-69.632-51.2-88.576z" fill="#333333" p-id="4076"></path><path d="M638.464 329.216h66.56v313.856h-66.56zM500.224 573.44l24.064 71.68h73.216L481.28 331.264H402.944L288.256 645.12h73.216l24.064-71.68h114.688z m-61.44-162.304c1.536-8.704 5.12-18.944 5.12-27.136h1.536c1.536 11.776 3.584 20.48 5.12 27.136l35.84 109.056H402.944l35.84-109.056z" fill="#333333" p-id="4077"></path></svg>